<?xml version="1.0" encoding="UTF-8" standalone="no"?> <svg width="24" height="24" viewBox="0 0 24 24" fill="none" xmlns="http://www.w3.org/2000/svg">
<path fill-rule="evenodd" clip-rule="evenodd" d="M6 2C6 0.895431 6.89543 0 8 0H14C17.866 0 21 3.13401 21 7C21 10.866 17.866 14 14 14H8V16H14C14.5523 16 15 16.4477 15 17C15 17.5523 14.5523 18 14 18H8V23C8 23.5523 7.55228 24 7 24C6.44772 24 6 23.5523 6 23V18H5C4.44772 18 4 17.5523 4 17C4 16.4477 4.44772 16 5 16H6V14H5C4.44772 14 4 13.5523 4 13C4 12.4477 4.44772 12 5 12H6V2ZM8 12H14C16.7614 12 19 9.76142 19 7C19 4.23858 16.7614 2 14 2H8V12Z" fill="#293644"/>
</svg>
